<svg width="29" height="25" viewBox="0 0 29 25" fill="none" xmlns="http://www.w3.org/2000/svg">
<g clip-path="url(#clip0_4083_2414)">
<path d="M14.1152 0.0934782C15.6315 0.137095 17.0009 1.02718 17.6571 2.4046L20.2611 7.8823L20.3029 7.77644C20.4064 7.50342 20.4911 7.22368 20.5566 6.93918L20.593 6.76953C21.0318 4.57556 23.1643 3.15562 25.3623 3.5897C25.8844 3.69398 26.3808 3.9001 26.8232 4.19629C27.2656 4.49247 27.6453 4.8729 27.9406 5.31587C28.2359 5.75883 28.441 6.25563 28.5443 6.7779C28.6476 7.30016 28.6469 7.83765 28.5424 8.35967C27.9575 11.2804 26.4498 13.9911 24.2872 16.1386L24.2187 16.2052L25.1315 18.1245C26.1911 20.3524 25.0933 23.0454 22.7863 23.8011L22.6822 23.8336L22.6028 23.8576C22.2498 23.957 21.8849 24.0076 21.5182 24.0081C20.7516 24.0082 20.0006 23.7909 19.3524 23.3816C18.7042 22.9724 18.1852 22.3877 17.8557 21.6956L17.1511 20.2141L16.9733 20.2582C16.0208 20.4833 15.0546 20.608 14.088 20.6272L13.8245 20.6298C12.8943 20.6298 11.9487 20.5216 11.0041 20.312L10.8178 20.2686L10.1409 21.6918C9.68443 22.6515 8.86924 23.3935 7.87094 23.7578L7.75039 23.7997C7.23045 23.9711 6.68114 24.0354 6.13566 23.9886C5.59018 23.9418 5.05985 23.7849 4.57669 23.5275C2.65231 22.5045 1.9185 20.1098 2.85746 18.1318L3.69801 16.3643L3.62458 16.293C2.47225 15.1563 1.55872 13.8642 0.952693 12.4753L0.871925 12.2854L0.860309 12.2546C0.0262267 10.1807 1.02787 7.82005 3.10042 6.98093C4.72606 6.32285 6.52815 6.7954 7.63631 8.03057L7.65713 8.05446L10.3361 2.41918C10.6537 1.74039 11.1539 1.16335 11.7807 0.752588C12.4075 0.341824 13.1363 0.113537 13.8854 0.093259L13.9988 0.0921631L14.1152 0.0934782Z" fill="white"/>
<path d="M10.1067 18.7275L12.5063 13.679C10.6735 13.2897 8.82945 12.156 7.78649 10.7769L5.27734 16.0519C6.67165 17.2347 8.34573 18.1645 10.1067 18.7275Z" fill="#1A007F"/>
<path d="M20.1375 10.6251C18.932 12.1027 17.258 13.1986 15.4668 13.6256L17.8588 18.659C19.6047 18.0694 21.2371 17.1172 22.6467 15.8967L20.1375 10.6251Z" fill="#4E000A"/>
<path d="M5.29092 16.0517L4.03635 18.6894C3.39766 20.0309 3.87755 21.6823 5.19262 22.3814C6.58703 23.122 8.30265 22.5439 8.97531 21.1343L10.1203 18.7273C8.35215 18.1572 6.71186 17.2485 5.29092 16.0517Z" fill="#1A007F"/>
<path d="M25.1074 4.86648C24.7526 4.79544 24.3873 4.79499 24.0323 4.86518C23.6773 4.93536 23.3397 5.07479 23.0386 5.27551C22.7375 5.47623 22.4789 5.7343 22.2776 6.03498C22.0763 6.33566 21.9361 6.67306 21.8653 7.0279C21.6007 8.35064 20.981 9.58242 20.127 10.6292L22.6324 15.9045C24.945 13.8979 26.653 11.1659 27.2653 8.10867C27.5638 6.61223 26.5963 5.16116 25.1074 4.86648Z" fill="#FF9396"/>
<path d="M15.467 13.6257C14.9304 13.7541 14.3825 13.8222 13.8345 13.8222C13.4076 13.8222 12.9655 13.7731 12.5233 13.6786C10.6905 13.2894 8.84646 12.1557 7.80351 10.7765C7.54268 10.4326 7.33118 10.0736 7.18378 9.70701C6.61315 8.29747 5.00712 7.61736 3.59759 8.18416C2.18805 8.75479 1.50805 10.3608 2.07474 11.7702C2.72087 13.3724 3.86213 14.8425 5.29435 16.0517C6.71391 17.2483 8.35293 18.1571 10.1199 18.7272C11.3329 19.1163 12.5912 19.3318 13.8308 19.3318C15.2062 19.3318 16.5628 19.0936 17.8552 18.6591L15.467 13.6257Z" fill="#002DC8"/>
<path d="M23.9591 18.678L22.6366 15.8968L20.1312 10.6253L20.1275 10.6291C20.1275 10.6291 20.1275 10.6253 20.1312 10.6253L16.4885 2.96172C16.2648 2.49155 15.9126 2.09436 15.4725 1.81615C15.0324 1.53795 14.5225 1.39011 14.0019 1.38977C12.94 1.38977 11.9726 2.00193 11.5154 2.96183L7.80078 10.7765C8.84374 12.1557 10.6878 13.2894 12.5206 13.6786L13.7222 11.1544C13.8356 10.9162 14.1757 10.9162 14.2891 11.1544L15.4643 13.6257H15.4719H15.4642L17.8563 18.6591L19.0316 21.1305C19.255 21.6016 19.6077 21.9994 20.0486 22.2778C20.4895 22.5561 21.0004 22.7034 21.5218 22.7025C21.7675 22.7025 22.0131 22.6686 22.2549 22.6005C23.9139 22.1432 24.6999 20.2349 23.9591 18.678Z" fill="#FF536A"/>
</g>
<defs>
<clipPath id="clip0_4083_2414">
<rect width="28.0548" height="24" fill="white" transform="translate(0.566406 0.0921631)"/>
</clipPath>
</defs>
</svg>
