<svg width="19" height="25" viewBox="0 0 19 25" fill="none" xmlns="http://www.w3.org/2000/svg">
<g clip-path="url(#clip0_4083_2379)">
<path d="M15.1418 22.3793C14.9941 23.4586 13.9318 24.305 12.8696 24.0096C11.3643 23.6006 9.62045 22.953 8.05265 22.8338L5.64419 22.6519C5.25729 22.6247 4.89367 22.457 4.62173 22.1805L0.475083 17.9316C0.254848 17.7053 0.107811 17.4179 0.0530955 17.1069C-0.00162018 16.7959 0.0385174 16.4756 0.168288 16.1877C0.168288 16.1877 2.72443 10.5869 2.82672 10.2972C2.91759 10.0075 3.26985 7.4627 3.47429 6.09939C3.53163 5.73741 3.71222 5.40634 3.98552 5.16217L8.88195 0.776815C9.04328 0.632101 9.23247 0.521883 9.43793 0.452927C9.64339 0.383971 9.86078 0.357731 10.0767 0.375819C10.2927 0.393907 10.5027 0.455941 10.6938 0.558113C10.885 0.660284 11.0532 0.800438 11.1882 0.969972L15.3121 6.1732C15.5429 6.47034 15.667 6.8365 15.6643 7.21272C15.6643 8.19542 15.7496 10.2233 16.3005 11.5298C16.8472 12.7048 17.5256 13.8139 18.3227 14.8358C18.4192 14.9611 18.4762 15.1123 18.4863 15.2701C18.4964 15.428 18.4592 15.5853 18.3795 15.7219C18.0217 16.3297 17.3059 17.4998 16.3005 18.9937C15.664 20.0209 15.266 21.1778 15.136 22.3793H15.1418V22.3793Z" fill="black" fill-opacity="0.3"/>
<path d="M15.1764 22.1975C15.0287 23.2825 13.9665 24.1289 12.9042 23.8392C11.4047 23.4245 9.66639 22.7769 8.09302 22.6577L5.6902 22.4759C5.30239 22.4476 4.93849 22.2778 4.66774 21.9988L0.521093 17.7385C0.298727 17.5099 0.150495 17.2195 0.0957732 16.9054C0.0410511 16.5912 0.0823841 16.2678 0.21437 15.9775C0.21437 15.9775 2.77615 10.354 2.87273 10.0586C2.96931 9.76895 3.31586 7.21844 3.5203 5.84379C3.57639 5.47977 3.75708 5.14649 4.03153 4.90085L8.92803 0.498586C9.08972 0.354201 9.27922 0.244391 9.48488 0.1759C9.69055 0.107408 9.90805 0.0816811 10.124 0.100298C10.34 0.118915 10.5499 0.181483 10.7408 0.28416C10.9317 0.386837 11.0996 0.527456 11.2342 0.697381L15.3525 5.92331C15.5825 6.22088 15.7064 6.58676 15.7046 6.96283C15.7046 7.95124 15.7899 9.9848 16.3352 11.2969C16.8815 12.4775 17.5599 13.5923 18.3574 14.62C18.456 14.7452 18.5147 14.8972 18.5258 15.0563C18.537 15.2153 18.5 15.374 18.4199 15.5117C18.0563 16.1253 17.3463 17.2954 16.3352 18.8007C15.701 19.8326 15.3051 20.9931 15.1764 22.1975Z" fill="#6C31E3"/>
<path d="M5.12464 22.3168C7.05028 18.4145 6.9991 15.6141 6.17551 13.6259C5.42573 11.7855 4.02267 10.6267 2.92069 9.9053C2.89864 10.0112 2.86431 10.1141 2.8184 10.212L0.228207 15.9776C0.0969328 16.2684 0.0565175 16.5921 0.11225 16.9063C0.167983 17.2205 0.317268 17.5106 0.540569 17.7386L4.68158 21.9988C4.81139 22.1277 4.96096 22.2351 5.12464 22.3168Z" fill="url(#paint0_radial_4083_2379)"/>
<path d="M10.3558 14.3982C10.8758 14.4492 11.3873 14.5657 11.8782 14.7446C13.4573 15.3354 14.8944 16.6646 16.0816 19.2265C16.1669 19.0788 16.252 18.9368 16.3429 18.8004C17.0685 17.7238 17.7636 16.6271 18.4276 15.5115C18.5086 15.3743 18.5464 15.2159 18.5363 15.0569C18.5262 14.8979 18.4685 14.7456 18.3708 14.6197C17.5714 13.5923 16.8911 12.4775 16.3429 11.2967C15.7976 9.99019 15.7181 7.95098 15.7124 6.96257C15.7124 6.58768 15.5931 6.21843 15.3603 5.92305L11.2419 0.697126L11.1738 0.611969C11.4749 1.60594 11.4579 2.40127 11.2703 3.12264C11.1 3.79291 10.7819 4.40072 10.4467 5.04264C10.3331 5.2585 10.2195 5.47999 10.1116 5.7072C9.57736 6.72748 9.27115 7.8516 9.21408 9.00185C9.15726 10.3765 9.43558 12.0976 10.3502 14.3982H10.3558V14.3982Z" fill="url(#paint1_radial_4083_2379)"/>
<path d="M10.3457 14.3984C9.43107 12.0979 9.15276 10.3767 9.20958 9.00202C9.2664 7.6388 9.66399 6.61634 10.107 5.70745L10.4479 5.04289C10.7774 4.40096 11.0898 3.79316 11.2658 3.12289C11.475 2.29404 11.4414 1.42255 11.1693 0.612217C10.5811 -0.0340484 9.58179 -0.0847954 8.93119 0.498578L4.03483 4.90084C3.76038 5.14648 3.57969 5.47976 3.5236 5.84378L2.92722 9.79728C2.92722 9.83704 2.91579 9.87116 2.91016 9.91092C4.01213 10.6267 5.40948 11.7854 6.16498 13.6202C6.31266 13.9838 6.43765 14.3644 6.52852 14.779C7.76983 14.4348 9.06064 14.3042 10.3457 14.3928V14.3984H10.3457Z" fill="url(#paint2_radial_4083_2379)"/>
<path d="M12.9184 23.8391C13.975 24.1288 15.0372 23.2824 15.1849 22.1917C15.3059 21.1572 15.6118 20.1529 16.0881 19.2266C14.8952 16.6647 13.4581 15.3355 11.8846 14.7448C10.209 14.12 8.38553 14.3301 6.5337 14.7789C6.94835 16.6591 6.70408 19.1187 5.125 22.3167C5.3011 22.4076 5.49989 22.4587 5.69869 22.4757L8.19237 22.6632C9.54425 22.7597 11.5608 23.4584 12.9184 23.839V23.8391Z" fill="url(#paint3_radial_4083_2379)"/>
<path d="M9.22748 8.91694C9.16502 10.2802 9.33541 11.8367 10.2499 14.1315L9.96592 14.1031C9.14225 11.7117 8.96052 10.4847 9.02298 9.10438C9.0798 7.72409 9.52857 6.66181 9.97163 5.75299C10.0852 5.52578 10.3465 5.09971 10.4602 4.88385C10.7896 4.242 11.0111 3.90687 11.1986 3.32176C11.4713 2.50381 11.4144 2.11756 11.3803 1.73132C11.5905 3.12296 10.7896 4.33287 10.1875 5.56554C9.63006 6.60093 9.3008 7.74368 9.22184 8.91694H9.22748Z" fill="url(#paint4_radial_4083_2379)"/>
<path d="M6.44005 13.7224C6.55361 13.9724 6.65019 14.1769 6.71836 14.4892L6.47409 14.5461C6.37751 14.1825 6.30371 13.9213 6.16166 13.6088C5.33236 11.6604 4.00311 10.655 2.92383 9.9166C4.23038 10.621 5.57662 11.7286 6.43997 13.7224H6.44005Z" fill="url(#paint5_radial_4083_2379)"/>
<path d="M6.73007 14.7392C7.18447 16.8693 6.67325 19.5788 5.16797 22.2146C6.42905 19.6016 7.0425 17.0965 6.53127 14.7732L6.73007 14.7335V14.7392Z" fill="url(#paint6_radial_4083_2379)"/>
<path d="M11.9336 14.5405C14.4045 15.4664 15.3589 17.4943 16.0689 19.1927C15.1884 17.4205 13.9672 15.4607 11.8427 14.7336C10.2295 14.177 8.86623 14.2451 6.53158 14.7734L6.48047 14.5462C8.9571 13.9781 10.2522 13.91 11.9336 14.5462V14.5405Z" fill="url(#paint7_radial_4083_2379)"/>
</g>
<defs>
<radialGradient id="paint0_radial_4083_2379" cx="0" cy="0" r="1" gradientUnits="userSpaceOnUse" gradientTransform="translate(2060.38 19.7656) rotate(-104) scale(1085.65 2032.92)">
<stop stop-color="white" stop-opacity="0.4"/>
<stop offset="1" stop-opacity="0.1"/>
</radialGradient>
<radialGradient id="paint1_radial_4083_2379" cx="0" cy="0" r="1" gradientUnits="userSpaceOnUse" gradientTransform="translate(2409.95 506.23) rotate(-82) scale(1776.24 3543.48)">
<stop stop-color="white" stop-opacity="0.6"/>
<stop offset="1" stop-color="white" stop-opacity="0.1"/>
</radialGradient>
<radialGradient id="paint2_radial_4083_2379" cx="0" cy="0" r="1" gradientUnits="userSpaceOnUse" gradientTransform="translate(2051.18 815.692) rotate(-77) scale(1517.49 2624.73)">
<stop stop-color="white" stop-opacity="0.8"/>
<stop offset="1" stop-color="white" stop-opacity="0.4"/>
</radialGradient>
<radialGradient id="paint3_radial_4083_2379" cx="0" cy="0" r="1" gradientUnits="userSpaceOnUse" gradientTransform="translate(792.417 1.60953e+06) scale(1009.55 878.718)">
<stop stop-color="white" stop-opacity="0.3"/>
<stop offset="1" stop-opacity="0.3"/>
</radialGradient>
<radialGradient id="paint4_radial_4083_2379" cx="0" cy="0" r="1" gradientUnits="userSpaceOnUse" gradientTransform="translate(-571.322 264.942) rotate(102) scale(789.899 4076.3)">
<stop stop-color="white" stop-opacity="0"/>
<stop offset="1" stop-color="white" stop-opacity="0.2"/>
</radialGradient>
<radialGradient id="paint5_radial_4083_2379" cx="0" cy="0" r="1" gradientUnits="userSpaceOnUse" gradientTransform="translate(-23.2424 -73.289) rotate(45) scale(582.43 710.587)">
<stop stop-color="white" stop-opacity="0.2"/>
<stop offset="1" stop-color="white" stop-opacity="0.4"/>
</radialGradient>
<radialGradient id="paint6_radial_4083_2379" cx="0" cy="0" r="1" gradientUnits="userSpaceOnUse" gradientTransform="translate(405.385 -112.398) rotate(80) scale(679.837 2953.31)">
<stop stop-color="white" stop-opacity="0.1"/>
<stop offset="1" stop-color="white" stop-opacity="0.3"/>
</radialGradient>
<radialGradient id="paint7_radial_4083_2379" cx="0" cy="0" r="1" gradientUnits="userSpaceOnUse" gradientTransform="translate(959.072 -2.80314e+06) scale(1954.35 1039.19)">
<stop stop-color="white" stop-opacity="0.2"/>
<stop offset="0.5" stop-color="white" stop-opacity="0.2"/>
<stop offset="1" stop-color="white" stop-opacity="0.3"/>
</radialGradient>
<clipPath id="clip0_4083_2379">
<rect width="18.506" height="24" fill="white" transform="translate(0.0292969 0.0921631)"/>
</clipPath>
</defs>
</svg>
